<svg width="58" height="70" viewBox="0 0 58 70" fill="none" xmlns="http://www.w3.org/2000/svg">
<path d="M0.661684 64.6271C0.664601 67.3979 2.6421 69.7371 5.38668 69.8538C9.20752 70.0142 13.0371 69.9179 16.8638 69.9179C19.6463 69.9179 22.0729 67.395 21.9971 64.2188C21.9125 60.6575 22.0496 57.0875 22.0817 53.5234L22.2129 38.975C22.2217 38.0854 22.3471 37.9192 23.19 37.6917C25.103 37.1562 27.1169 37.0891 29.0613 37.4963C32.6488 38.2604 35.2709 41.0254 35.6559 44.6713C35.8484 46.4796 35.86 48.3142 35.8834 50.1371C35.9563 54.9204 35.9942 59.7038 36.0409 64.49C36.07 67.6604 38.3625 69.9646 41.5329 69.9792C44.9484 69.9967 48.3638 70.0025 51.7792 69.9996C55.005 69.9938 57.3063 67.7304 57.315 64.5075C57.3354 54.6754 57.3354 44.8434 57.3442 35.0113C57.3442 34.8596 57.3442 34.705 57.3296 34.5563C57.2421 33.5209 56.8367 32.6371 55.9209 32.1121C55.2892 31.7337 54.6066 31.4478 53.8938 31.2634C51.1369 30.5979 48.2768 30.4761 45.4734 30.9046C43.3063 31.2342 41.1684 31.7592 39.0188 32.1938C36.1896 32.7654 33.3429 33.0104 30.4613 32.7129C26.7629 32.3367 23.5488 30.7704 20.5388 28.6879C19.113 27.6913 17.6599 26.7343 16.1813 25.8179C14.3729 24.7096 12.3488 24.345 10.2604 24.2313C8.0146 24.1059 5.78043 24.0475 3.57252 24.555C1.85168 24.9517 0.950434 25.9521 0.755018 27.6963C0.71426 28.0633 0.693812 28.4324 0.693768 28.8017M22.0934 10.765C22.0993 9.35742 21.8279 7.96243 21.2947 6.6597C20.7616 5.35697 19.977 4.17201 18.9859 3.17249C17.9947 2.17296 16.8164 1.37844 15.5183 0.834289C14.2201 0.290136 12.8274 0.00700875 11.4198 0.00107191C10.0122 -0.00486494 8.61721 0.266505 7.31448 0.799688C6.01175 1.33287 4.82679 2.11742 3.82727 3.10855C2.82774 4.09968 2.03322 5.27798 1.48907 6.57617C0.944915 7.87435 0.661788 9.26701 0.655851 10.6746C0.644248 13.5174 1.76241 16.2484 3.76436 18.2667C5.76631 20.2851 8.48806 21.4255 11.3309 21.4371C14.1736 21.4487 16.9046 20.3305 18.923 18.3286C20.9413 16.3266 22.0817 13.6049 22.0934 10.7621V10.765ZM46.4038 5.48586C43.5645 5.47268 40.8362 6.58713 38.8181 8.58438C36.8001 10.5816 35.6575 13.2983 35.6413 16.1375C35.6317 17.5496 35.9014 18.9497 36.4349 20.2571C36.9685 21.5646 37.7553 22.7536 38.7502 23.7558C39.7451 24.7579 40.9283 25.5535 42.2318 26.0966C43.5353 26.6397 44.9333 26.9197 46.3454 26.9204C49.185 26.922 51.9093 25.7977 53.9213 23.7939C55.9333 21.7901 57.0687 19.0704 57.0788 16.2309C57.085 13.3911 55.9646 10.6647 53.9634 8.64985C51.9622 6.63497 49.2435 5.49607 46.4038 5.48295V5.48586Z" fill="#EF4444"/>
</svg>
