<svg width="70" height="70" viewBox="0 0 70 70" fill="none" xmlns="http://www.w3.org/2000/svg">
<path d="M67.9547 32.9547L61.5562 26.5562C60.2437 25.2438 58.4609 24.5109 56.6016 24.5109H52.5V14C52.5 12.0641 50.9359 10.5 49 10.5H3.5C1.56406 10.5 0 12.0641 0 14V50.75C0 55.5844 3.91562 59.5 8.75 59.5C11.6266 59.5 14.1531 58.0891 15.75 55.9562C17.3469 58.1 19.8734 59.5 22.75 59.5C27.5844 59.5 31.5 55.5844 31.5 50.75C31.5 50.1484 31.4344 49.5687 31.325 49H49.175C49.0547 49.5687 49 50.1484 49 50.75C49 55.5844 52.9156 59.5 57.75 59.5C62.5844 59.5 66.5 55.5844 66.5 50.75C66.5 50.1484 66.4344 49.5687 66.325 49H68.25C69.2125 49 70 48.2125 70 47.25V37.8984C70 36.0391 69.2672 34.2672 67.9547 32.9547ZM8.75 54.25C6.825 54.25 5.25 52.675 5.25 50.75C5.25 48.825 6.825 47.25 8.75 47.25C10.675 47.25 12.25 48.825 12.25 50.75C12.25 52.675 10.675 54.25 8.75 54.25ZM22.75 54.25C20.825 54.25 19.25 52.675 19.25 50.75C19.25 48.825 20.825 47.25 22.75 47.25C24.675 47.25 26.25 48.825 26.25 50.75C26.25 52.675 24.675 54.25 22.75 54.25ZM52.5 29.75H56.6016C57.0719 29.75 57.5094 29.9359 57.8375 30.2641L62.5734 35H52.5V29.75ZM57.75 54.25C55.825 54.25 54.25 52.675 54.25 50.75C54.25 48.825 55.825 47.25 57.75 47.25C59.675 47.25 61.25 48.825 61.25 50.75C61.25 52.675 59.675 54.25 57.75 54.25Z" fill="#EF4444"/>
</svg>
