<svg width="70" height="70" viewBox="0 0 70 70" fill="none" xmlns="http://www.w3.org/2000/svg">
<path d="M3.41797 3.41797V31.582H18.457V31.1309L13.5721 26.25L18.457 21.3691V3.41797H3.41797ZM57.832 16.2695C55.5762 16.2695 53.5527 16.7344 52.1992 17.418C50.832 18.1016 50.3125 18.8672 50.3125 19.4141C50.3125 19.9609 50.832 20.7266 52.1992 21.4102C53.5527 22.0938 55.5762 22.5586 57.832 22.5586C60.0879 22.5586 62.1113 22.0938 63.4648 21.4102C64.832 20.7266 65.3516 19.9609 65.3516 19.4141C65.3516 18.8672 64.832 18.1016 63.4648 17.418C62.1113 16.7344 60.0879 16.2695 57.832 16.2695ZM21.875 21.4238L17.0488 26.25L25.7988 35L17.0488 43.75L21.875 48.5762L32.3066 38.1445H44.9805V43.3125L54.9473 35L44.9805 26.6875V31.8555H32.3066L21.875 21.4238ZM50.3125 23.1738V27.9316L58.8027 35L50.3125 42.0684V50.0391C50.3125 51.1328 50.9688 51.9258 52.3633 52.623C53.7578 53.334 55.7949 53.7305 57.832 53.7305C59.8691 53.7305 61.9062 53.334 63.3008 52.623C64.6953 51.9258 65.3516 51.1328 65.3516 50.0391V23.1738C65.1055 23.3242 64.8457 23.4746 64.5723 23.6113C62.7676 24.5137 60.416 25.0195 57.832 25.0195C55.248 25.0195 52.8965 24.5137 51.0918 23.6113C50.8184 23.4746 50.5586 23.3242 50.3125 23.1738ZM10.9375 49.3555C6.77031 49.3555 3.41797 52.7051 3.41797 56.875C3.41797 61.0449 6.77031 64.3945 10.9375 64.3945C15.1074 64.3945 18.457 61.0449 18.457 56.875C18.457 52.7051 15.1074 49.3555 10.9375 49.3555Z" fill="#EF4444"/>
</svg>
